<svg xmlns="http://www.w3.org/2000/svg" width="1200" height="132" viewBox="0 0 1200 132" role="img" aria-labelledby="t d">
  <title id="t">رادار نوا ، آنچه پورت شد: اسکنر آی‌پی تمیز کلودفلر، حالا با ⁦Dart⁩.</title>
  <desc id="d">رادار نوا ، آنچه پورت شد: اسکنر آی‌پی تمیز کلودفلر، حالا با ⁦Dart⁩.</desc>
  <defs>
    <linearGradient id="nova" x1="0" y1="0" x2="1" y2="1">
      <stop offset="0" stop-color="#22d3ee"/>
      <stop offset="0.5" stop-color="#818cf8"/>
      <stop offset="1" stop-color="#a855f7"/>
    </linearGradient>
    <radialGradient id="glow" cx="0.5" cy="0.5" r="0.5">
      <stop offset="0" stop-color="#22d3ee" stop-opacity="0.14"/>
      <stop offset="1" stop-color="#22d3ee" stop-opacity="0"/>
    </radialGradient>
    <clipPath id="bx"><rect x="0" y="0" width="1200" height="132" rx="20"/></clipPath>
  </defs>
  <rect width="1200" height="132" rx="20" fill="#080b12"/>
  <g clip-path="url(#bx)">
    <ellipse cx="1134" cy="66" rx="260" ry="150" fill="url(#glow)"/>
    <path d="M60 132 A60 60 0 0 0 0 72" fill="none" stroke="#22d3ee" stroke-width="2" stroke-opacity="0.13"/>
    <path d="M96 132 A96 96 0 0 0 0 36" fill="none" stroke="#22d3ee" stroke-width="2" stroke-opacity="0.09"/>
    <path d="M132 132 A132 132 0 0 0 0 0" fill="none" stroke="#22d3ee" stroke-width="2" stroke-opacity="0.06"/>
    <circle cx="0" cy="132" r="5" fill="url(#nova)"/>
  </g>
  <rect x="0.5" y="0.5" width="1199" height="131" rx="19.5" fill="none" stroke="#1b2333"/>
  <rect x="1100" y="32" width="68" height="68" rx="18" fill="url(#nova)"/>
  <g transform="translate(1068 0)"><circle cx="66" cy="66" r="18" fill="none" stroke="#fff" stroke-width="3.5"/>
   <line x1="48" y1="66" x2="84" y2="66" stroke="#fff" stroke-width="2" opacity="0.6"/>
   <line x1="66" y1="48" x2="66" y2="84" stroke="#fff" stroke-width="2" opacity="0.6"/>
   <path d="M66 66 L66 48 A18 18 0 0 1 82 58 Z" fill="#fff" opacity="0.9"/>
   <circle cx="76" cy="74" r="3" fill="#fff"/></g>
  <text x="1076" y="62" text-anchor="end" font-family="-apple-system,BlinkMacSystemFont,Segoe UI,PingFang SC,sans-serif" font-size="30" font-weight="800" fill="#edf2fa">رادار نوا</text>
  <text x="1076" y="96" text-anchor="end" font-family="-apple-system,BlinkMacSystemFont,Segoe UI,PingFang SC,sans-serif" font-size="18" font-weight="500" fill="#93a4bd">آنچه پورت شد: اسکنر آی‌پی تمیز کلودفلر، حالا با ⁦Dart⁩.</text>
  
</svg>
